<?xml version="1.0" standalone="no"?><!DOCTYPE svg PUBLIC "-//W3C//DTD SVG 1.1//EN" "http://www.w3.org/Graphics/SVG/1.1/DTD/svg11.dtd"><svg t="1551950999027" class="icon" style="" viewBox="0 0 1024 1024" version="1.1" xmlns="http://www.w3.org/2000/svg" p-id="498" xmlns:xlink="http://www.w3.org/1999/xlink" width="200" height="200"><defs><style type="text/css"></style></defs><path d="M555.672967 480.366283c7.270295-34.815495-0.409594-54.015217-24.370847-54.015217-24.370847 0-47.256915 18.482932-64.511064 54.015217h88.881911z" p-id="499" fill="#ffffff"></path><path d="M752.892507 11.841876C579.071027-44.528506 236.087201 101.082182 90.425313 444.066009c-87.294734 205.565019 9.420663 465.094056 216.112066 554.385561 173.616683 74.955713 516.805306-4.710332 620.176608-375.85375 103.371301-371.143418-14.130995-558.993495-173.82148-610.755944zM354.869478 478.318312L300.751863 655.365345h-62.463094l50.789663-166.141591c11.673431-38.143447 8.806272-55.039202-14.028596-55.039202-16.639759 0-31.180348 10.495848-51.71125 29.849168L164.869033 655.365345H102.405939l87.653129-286.715842h50.892062l-7.167896 38.245845h1.689576c25.702027-24.370847 55.243999-45.157745 86.526745-45.157745 47.56411-0.051199 54.988003 44.287358 32.869923 116.580709z m251.132359 20.991696a402.938157 402.938157 0 0 1-14.284593 38.092248H448.256924c-6.399907 41.266602 9.932656 60.107928 44.338557 60.107928 19.097323 0 37.733853-7.065498 60.312726-19.916511l5.017527 51.250457c-30.463558 20.991696-65.48385 33.535514-93.694641 33.535513-65.637448 0-99.787353-55.1416-70.654976-150.474618 28.671584-93.848239 99.019364-150.167423 155.389747-150.167422 64.920659-0.051199 80.894827 59.647135 57.035973 137.572405z m195.427566 156.055337h-73.11254l16.998154-93.233848c4.761531-24.678042 10.649446-51.967246 18.226936-84.888369h-1.689576c-9.267066 24.16605-18.687729 48.99769-33.07472 84.888369l-39.833023 93.233848h-71.883757l53.09363-286.715842h60.517522l-27.698798 132.964472c-6.041512 28.26199-12.748615 55.85839-19.097323 84.939568h1.38238c11.110239-29.081178 22.988467-57.701563 35.737082-84.939568l42.188188-94.769826h45.208944l-15.410976 94.769826c-4.607933 28.26199-9.369464 55.85839-15.410977 84.939568h1.689576c11.673431-29.081178 20.991696-56.728777 31.948336-84.939568L863.636501 368.649503H921.594061l-120.164658 286.715842z" p-id="500" fill="#ffffff"></path></svg>